# xmcd
#
# Track frame offsets: 
#        183
#        10083
#        22708
#        42670
#        54120
#        66033
#        82170
#        91945
#        102933
#        120220
#        132295
#        141070
#        155383
#        168808
#        182095
#        197108
#        212358
#        224583
#        235433
#        249558
#        261108
#        275683
#        288728
#        300958
#        316345
#
# Disc length: 4424 seconds
#
# Revision: 8
# Processed by: cddbd v1.5.2PL0 Copyright (c) Steve Scherf et al.
# Submitted via: ExactAudioCopy v0.99pb4
#
DISCID=59114619,5c114619
DTITLE=Various Artist - Blues and Soul [CD1]
DYEAR=1900
DGENRE=Blues
TTITLE0=John Lee Hooker - Dimples
TTITLE1=Howlin' Wolf - Ain't Superstitious
TTITLE2=Joe Turner - Nothin' From Nothin' Blues
TTITLE3=Billie Holiday - I Got It Bad And That Ain't Good
TTITLE4=Muddy Waters - The Stuff You Gotta Watch
TTITLE5=Gatemouth Moore - My Mother Thinks I'm Something
TTITLE6=Roy Milton - Red Light
TTITLE7=B.B. King - Catfish Blues
TTITLE8=Lightnin' Hopkins - I'm Leaving You Now
TTITLE9=Roy Milton - Early In The Morning
TTITLE10=Billie Holiday - Please Don't Talk About Me When I'm Gone
TTITLE11=Leadbelly - Poor Howard Green Corn
TTITLE12=Muddy Waters - She Moves Me
TTITLE13=Elmore James - Elmore James
TTITLE14=Muddy Waters - Iodine In My Coffee
TTITLE15=John Lee Hooker - Tupelo
TTITLE16=Howlin' Wolf - Streamline
TTITLE17=Joe Simon - Say
TTITLE18=B.B. King - B.B. Boogie
TTITLE19=Billie Holiday - Nice Work If You Can Get It
TTITLE20=Gatemouth Moore - I Ain't Mad At You Pretty Baby
TTITLE21=Muddy Waters - Close To You
TTITLE22=John Lee Hooker - Drug Store Woman
TTITLE23=Howlin' Wolf - Goin' Down Slow
TTITLE24=Elmore James - I Believe
EXTD=ID3G: 0
EXTT0=
EXTT1=
EXTT2=
EXTT3=
EXTT4=
EXTT5=
EXTT6=
EXTT7=
EXTT8=
EXTT9=
EXTT10=
EXTT11=
EXTT12=
EXTT13=
EXTT14=
EXTT15=
EXTT16=
EXTT17=
EXTT18=
EXTT19=
EXTT20=
EXTT21=
EXTT22=
EXTT23=
EXTT24=
PLAYORDER=
